<svg id="图层_1" data-name="图层 1" xmlns="http://www.w3.org/2000/svg" viewBox="0 0 30 30"><defs><style>.cls-1{fill:#fff;}</style></defs><title>icon_sms</title><path class="cls-1" d="M5.38,21.11A1.39,1.39,0,0,1,4,19.71V10.59H3.12A1.15,1.15,0,0,0,2,11.75v14a.3.3,0,0,0,.47.25l3.66-2H19.8A1.15,1.15,0,0,0,21,22.77V21.11Z"/><path class="cls-1" d="M26.63,4H6.44A1.4,1.4,0,0,0,5,5.4V18.74a1.4,1.4,0,0,0,1.4,1.4H23l4.42,2.44a.36.36,0,0,0,.58-.3V5.4A1.39,1.39,0,0,0,26.63,4ZM10.94,15a3.12,3.12,0,0,1-2.13-.84l.67-.78A2.36,2.36,0,0,0,11,14c.61,0,.93-.26.93-.66s-.36-.55-.88-.77l-.77-.33a1.67,1.67,0,0,1-1.19-1.54,1.81,1.81,0,0,1,2-1.65,2.63,2.63,0,0,1,1.83.73l-.59.72a1.89,1.89,0,0,0-1.24-.47c-.51,0-.84.23-.84.6s.41.56.91.75l.76.32a1.6,1.6,0,0,1,1.18,1.56C13.08,14.21,12.28,15,10.94,15Zm8.46-.11H18.34V12.51c0-.54.09-1.34.14-1.88h0L18,12l-.9,2.4h-.67L15.5,12,15,10.63h0c.05.54.15,1.34.15,1.88V14.9H14.11V9.18H15.4l1,2.67c.13.36.24.74.36,1.11h0c.12-.37.23-.75.35-1.11l1-2.67H19.4Zm3.18.11a3.12,3.12,0,0,1-2.13-.84l.67-.78A2.36,2.36,0,0,0,22.6,14c.61,0,.93-.26.93-.66s-.35-.55-.87-.77l-.78-.33a1.67,1.67,0,0,1-1.19-1.54,1.81,1.81,0,0,1,2-1.65,2.61,2.61,0,0,1,1.83.73l-.59.72a1.89,1.89,0,0,0-1.24-.47c-.51,0-.84.23-.84.6s.42.56.91.75l.77.32a1.6,1.6,0,0,1,1.17,1.56C24.72,14.21,23.92,15,22.58,15Z"/></svg>